<svg xmlns="http://www.w3.org/2000/svg" xmlns:xlink="http://www.w3.org/1999/xlink" width="200" zoomAndPan="magnify" viewBox="0 0 150 149.999998" height="200" preserveAspectRatio="xMidYMid meet" version="1.0"><defs><clipPath id="3c54c9ce9b"><path d="M 5.238281 5.238281 L 144.738281 5.238281 L 144.738281 144.738281 L 5.238281 144.738281 Z M 5.238281 5.238281 " clip-rule="nonzero"/></clipPath><clipPath id="f4048abb95"><path d="M 75 5.238281 C 36.46875 5.238281 5.238281 36.46875 5.238281 75 C 5.238281 113.527344 36.46875 144.761719 75 144.761719 C 113.527344 144.761719 144.761719 113.527344 144.761719 75 C 144.761719 36.46875 113.527344 5.238281 75 5.238281 Z M 75 5.238281 " clip-rule="nonzero"/></clipPath><clipPath id="d451192137"><path d="M 28.824219 31.191406 L 71 31.191406 L 71 117.441406 L 28.824219 117.441406 Z M 28.824219 31.191406 " clip-rule="nonzero"/></clipPath><clipPath id="1aaced3973"><path d="M 61 31.191406 L 89 31.191406 L 89 96 L 61 96 Z M 61 31.191406 " clip-rule="nonzero"/></clipPath><clipPath id="72d4b2be34"><path d="M 84 31.191406 L 121.074219 31.191406 L 121.074219 117.441406 L 84 117.441406 Z M 84 31.191406 " clip-rule="nonzero"/></clipPath></defs><g clip-path="url(#3c54c9ce9b)"><g clip-path="url(#f4048abb95)"><path stroke-linecap="butt" transform="matrix(0.75, 0, 0, 0.75, 5.237227, 5.237228)" fill="none" stroke-linejoin="miter" d="M 93.01703 0.00140474 C 41.642031 0.00140474 0.00140574 41.64203 0.00140574 93.017029 C 0.00140574 144.386821 41.642031 186.032654 93.01703 186.032654 C 144.386822 186.032654 186.032655 144.386821 186.032655 93.017029 C 186.032655 41.64203 144.386822 0.00140474 93.01703 0.00140474 Z M 93.01703 0.00140474 " stroke="#000000" stroke-width="8" stroke-opacity="1" stroke-miterlimit="4"/></g></g><path fill="#100f0d" d="M 47.296875 80.476562 L 50.371094 80.476562 L 50.371094 77.394531 L 47.296875 77.394531 L 47.296875 80.476562 " fill-opacity="1" fill-rule="nonzero"/><path fill="#100f0d" d="M 59.585938 105.117188 C 60.433594 105.117188 61.125 105.808594 61.125 106.660156 C 61.125 107.507812 60.433594 108.199219 59.585938 108.199219 C 58.738281 108.199219 58.050781 107.507812 58.050781 106.660156 C 58.050781 105.808594 58.738281 105.117188 59.585938 105.117188 Z M 59.585938 111.28125 C 62.128906 111.28125 64.195312 109.207031 64.195312 106.660156 C 64.195312 104.109375 62.128906 102.039062 59.585938 102.039062 C 57.046875 102.039062 54.980469 104.109375 54.980469 106.660156 C 54.980469 109.207031 57.046875 111.28125 59.585938 111.28125 " fill-opacity="1" fill-rule="nonzero"/><path fill="#100f0d" d="M 39.617188 105.117188 C 40.464844 105.117188 41.152344 105.808594 41.152344 106.660156 C 41.152344 107.507812 40.464844 108.199219 39.617188 108.199219 C 38.769531 108.199219 38.082031 107.507812 38.082031 106.660156 C 38.082031 105.808594 38.769531 105.117188 39.617188 105.117188 Z M 39.617188 111.28125 C 42.160156 111.28125 44.226562 109.207031 44.226562 106.660156 C 44.226562 104.109375 42.160156 102.039062 39.617188 102.039062 C 37.078125 102.039062 35.007812 104.109375 35.007812 106.660156 C 35.007812 109.207031 37.078125 111.28125 39.617188 111.28125 " fill-opacity="1" fill-rule="nonzero"/><g clip-path="url(#d451192137)"><path fill="#100f0d" d="M 39.617188 98.957031 C 43.851562 98.957031 47.296875 102.414062 47.296875 106.660156 C 47.296875 110.90625 43.851562 114.359375 39.617188 114.359375 C 35.382812 114.359375 31.9375 110.90625 31.9375 106.660156 C 31.9375 102.414062 35.382812 98.957031 39.617188 98.957031 Z M 44.515625 87.742188 L 46.777344 90.292969 L 41.65625 96.074219 C 41.117188 95.96875 40.566406 95.90625 40.003906 95.886719 Z M 45.761719 52.304688 C 45.761719 46.902344 46.816406 41.492188 48.835938 36.476562 C 49.636719 38.464844 50.289062 40.515625 50.78125 42.601562 C 51.527344 45.78125 51.90625 49.046875 51.90625 52.304688 L 51.90625 85.097656 C 51.90625 85.359375 51.972656 85.613281 52.101562 85.84375 L 57.746094 96.039062 C 57.253906 96.125 56.769531 96.242188 56.296875 96.394531 L 45.761719 84.511719 Z M 67.265625 106.660156 C 67.265625 110.90625 63.820312 114.359375 59.585938 114.359375 C 55.351562 114.359375 51.90625 110.90625 51.90625 106.660156 C 51.90625 102.414062 55.351562 98.957031 59.585938 98.957031 C 63.820312 98.957031 67.265625 102.414062 67.265625 106.660156 Z M 44.769531 97.199219 L 48.835938 92.613281 L 53.445312 97.816406 C 51.734375 99.011719 50.386719 100.695312 49.601562 102.664062 C 48.671875 100.332031 46.949219 98.394531 44.769531 97.199219 Z M 39.617188 117.441406 C 44.140625 117.441406 48.015625 114.625 49.601562 110.652344 C 51.1875 114.625 55.066406 117.441406 59.585938 117.441406 C 65.515625 117.441406 70.339844 112.605469 70.339844 106.660156 C 70.339844 101.277344 66.390625 96.808594 61.242188 96.007812 L 54.980469 84.695312 L 54.980469 52.304688 C 54.980469 48.808594 54.570312 45.308594 53.769531 41.894531 C 52.96875 38.484375 51.769531 35.171875 50.207031 32.042969 C 49.949219 31.519531 49.417969 31.191406 48.835938 31.191406 C 48.253906 31.191406 47.71875 31.519531 47.460938 32.042969 C 44.339844 38.300781 42.691406 45.308594 42.691406 52.304688 L 42.691406 84.699219 L 36.179688 96.445312 C 31.933594 97.886719 28.863281 101.917969 28.863281 106.660156 C 28.863281 112.605469 33.6875 117.441406 39.617188 117.441406 " fill-opacity="1" fill-rule="nonzero"/></g><g clip-path="url(#1aaced3973)"><path fill="#100f0d" d="M 74.578125 69.695312 C 71.945312 69.695312 69.414062 67.949219 67.457031 64.785156 C 65.351562 61.386719 64.195312 56.839844 64.195312 51.984375 C 64.195312 47.125 65.351562 42.578125 67.457031 39.179688 C 69.414062 36.015625 71.945312 34.269531 74.578125 34.269531 C 77.210938 34.269531 79.738281 36.015625 81.699219 39.179688 C 83.800781 42.578125 84.960938 47.125 84.960938 51.984375 C 84.960938 56.839844 83.800781 61.386719 81.699219 64.785156 C 79.738281 67.949219 77.210938 69.695312 74.578125 69.695312 Z M 76.53125 91.929688 C 76.023438 92.488281 75.332031 92.796875 74.578125 92.796875 C 73.824219 92.796875 73.128906 92.488281 72.625 91.929688 C 72.117188 91.367188 71.882812 90.644531 71.957031 89.894531 L 73.035156 79.089844 C 73.046875 78.953125 73.042969 78.816406 73.019531 78.683594 L 71.976562 72.398438 C 72.820312 72.644531 73.691406 72.773438 74.578125 72.773438 C 75.464844 72.773438 76.332031 72.644531 77.179688 72.398438 L 76.132812 78.683594 C 76.113281 78.816406 76.109375 78.953125 76.121094 79.089844 L 77.199219 89.894531 C 77.273438 90.644531 77.035156 91.367188 76.53125 91.929688 Z M 84.308594 66.40625 C 86.710938 62.53125 88.03125 57.410156 88.03125 51.984375 C 88.03125 46.554688 86.710938 41.433594 84.308594 37.558594 C 81.769531 33.453125 78.3125 31.191406 74.578125 31.191406 C 70.84375 31.191406 67.386719 33.453125 64.84375 37.558594 C 62.445312 41.433594 61.125 46.554688 61.125 51.984375 C 61.125 57.410156 62.445312 62.53125 64.84375 66.40625 C 65.933594 68.167969 67.191406 69.589844 68.570312 70.636719 L 69.957031 78.988281 L 68.898438 89.585938 C 68.738281 91.191406 69.265625 92.800781 70.347656 93.996094 C 71.425781 95.191406 72.96875 95.878906 74.578125 95.878906 C 76.1875 95.878906 77.730469 95.191406 78.808594 93.996094 C 79.890625 92.800781 80.414062 91.191406 80.253906 89.585938 L 79.199219 78.988281 L 80.585938 70.636719 C 81.960938 69.589844 83.21875 68.167969 84.308594 66.40625 " fill-opacity="1" fill-rule="nonzero"/></g><path fill="#100f0d" d="M 69.96875 55.832031 L 73.042969 55.832031 L 73.042969 52.753906 L 69.96875 52.753906 L 69.96875 55.832031 " fill-opacity="1" fill-rule="nonzero"/><path fill="#100f0d" d="M 69.96875 61.992188 L 73.042969 61.992188 L 73.042969 58.914062 L 69.96875 58.914062 L 69.96875 61.992188 " fill-opacity="1" fill-rule="nonzero"/><path fill="#100f0d" d="M 69.96875 43.511719 L 73.042969 43.511719 L 73.042969 40.429688 L 69.96875 40.429688 L 69.96875 43.511719 " fill-opacity="1" fill-rule="nonzero"/><path fill="#100f0d" d="M 69.96875 49.671875 L 73.042969 49.671875 L 73.042969 46.59375 L 69.96875 46.59375 L 69.96875 49.671875 " fill-opacity="1" fill-rule="nonzero"/><path fill="#100f0d" d="M 76.113281 43.511719 L 79.1875 43.511719 L 79.1875 40.429688 L 76.113281 40.429688 L 76.113281 43.511719 " fill-opacity="1" fill-rule="nonzero"/><path fill="#100f0d" d="M 76.113281 49.671875 L 79.1875 49.671875 L 79.1875 46.59375 L 76.113281 46.59375 L 76.113281 49.671875 " fill-opacity="1" fill-rule="nonzero"/><path fill="#100f0d" d="M 76.113281 61.992188 L 79.1875 61.992188 L 79.1875 58.914062 L 76.113281 58.914062 L 76.113281 61.992188 " fill-opacity="1" fill-rule="nonzero"/><path fill="#100f0d" d="M 76.113281 55.832031 L 79.1875 55.832031 L 79.1875 52.753906 L 76.113281 52.753906 L 76.113281 55.832031 " fill-opacity="1" fill-rule="nonzero"/><g clip-path="url(#72d4b2be34)"><path fill="#100f0d" d="M 102.597656 114.359375 C 94.128906 114.359375 87.238281 107.449219 87.238281 98.957031 C 87.238281 90.464844 94.128906 83.554688 102.597656 83.554688 C 111.066406 83.554688 117.960938 90.464844 117.960938 98.957031 C 117.960938 107.449219 111.066406 114.359375 102.597656 114.359375 Z M 105.671875 34.269531 L 107.207031 34.269531 C 108.054688 34.269531 108.742188 34.960938 108.742188 35.8125 L 108.742188 81.53125 C 107.753906 81.179688 106.726562 80.914062 105.671875 80.734375 Z M 111.816406 82.957031 L 111.816406 35.8125 C 111.816406 33.261719 109.746094 31.191406 107.207031 31.191406 L 94.917969 31.191406 C 94.070312 31.191406 93.382812 31.878906 93.382812 32.730469 C 93.382812 33.582031 94.070312 34.269531 94.917969 34.269531 L 102.597656 34.269531 L 102.597656 37.351562 L 94.917969 37.351562 C 94.070312 37.351562 93.382812 38.039062 93.382812 38.890625 C 93.382812 39.742188 94.070312 40.429688 94.917969 40.429688 L 102.597656 40.429688 L 102.597656 43.511719 L 94.917969 43.511719 C 94.070312 43.511719 93.382812 44.199219 93.382812 45.050781 C 93.382812 45.902344 94.070312 46.59375 94.917969 46.59375 L 102.597656 46.59375 L 102.597656 49.671875 L 94.917969 49.671875 C 94.070312 49.671875 93.382812 50.363281 93.382812 51.210938 C 93.382812 52.0625 94.070312 52.753906 94.917969 52.753906 L 102.597656 52.753906 L 102.597656 55.832031 L 94.917969 55.832031 C 94.070312 55.832031 93.382812 56.523438 93.382812 57.375 C 93.382812 58.222656 94.070312 58.914062 94.917969 58.914062 L 102.597656 58.914062 L 102.597656 61.992188 L 94.917969 61.992188 C 94.070312 61.992188 93.382812 62.683594 93.382812 63.535156 C 93.382812 64.382812 94.070312 65.074219 94.917969 65.074219 L 102.597656 65.074219 L 102.597656 68.15625 L 94.917969 68.15625 C 94.070312 68.15625 93.382812 68.84375 93.382812 69.695312 C 93.382812 70.546875 94.070312 71.234375 94.917969 71.234375 L 102.597656 71.234375 L 102.597656 74.316406 L 94.917969 74.316406 C 94.070312 74.316406 93.382812 75.003906 93.382812 75.855469 C 93.382812 76.707031 94.070312 77.394531 94.917969 77.394531 L 102.597656 77.394531 L 102.597656 80.476562 C 92.433594 80.476562 84.164062 88.765625 84.164062 98.957031 C 84.164062 109.148438 92.433594 117.441406 102.597656 117.441406 C 112.761719 117.441406 121.03125 109.148438 121.03125 98.957031 C 121.03125 92.132812 117.320312 86.15625 111.816406 82.957031 " fill-opacity="1" fill-rule="nonzero"/></g><path fill="#100f0d" d="M 105.671875 106.65625 L 99.585938 106.65625 C 99.574219 106.65625 99.566406 106.65625 99.554688 106.660156 C 99.300781 106.660156 99.058594 106.609375 98.832031 106.492188 C 98.464844 106.304688 98.195312 105.988281 98.066406 105.597656 C 97.9375 105.207031 97.96875 104.789062 98.15625 104.421875 C 98.417969 103.902344 98.941406 103.582031 99.527344 103.578125 C 100.375 103.578125 101.0625 102.890625 101.0625 102.039062 C 101.0625 102.035156 101.0625 102.03125 101.0625 102.027344 C 101.066406 101.183594 101.753906 100.496094 102.597656 100.496094 C 103.445312 100.496094 104.132812 101.1875 104.132812 102.039062 C 104.132812 102.886719 104.820312 103.578125 105.671875 103.578125 C 106.515625 103.578125 107.207031 104.269531 107.207031 105.117188 C 107.207031 105.96875 106.515625 106.65625 105.671875 106.65625 Z M 107.007812 100.695312 C 106.433594 98.800781 104.675781 97.417969 102.597656 97.417969 C 100.523438 97.417969 98.761719 98.800781 98.1875 100.695312 C 97 101.054688 95.992188 101.882812 95.414062 103.03125 C 94.859375 104.132812 94.761719 105.386719 95.148438 106.558594 C 95.53125 107.730469 96.347656 108.683594 97.445312 109.242188 C 98.089844 109.566406 98.804688 109.738281 99.527344 109.738281 C 99.550781 109.738281 99.574219 109.738281 99.597656 109.738281 L 105.671875 109.738281 C 108.210938 109.738281 110.277344 107.664062 110.277344 105.117188 C 110.277344 103.035156 108.898438 101.273438 107.007812 100.695312 " fill-opacity="1" fill-rule="nonzero"/><path fill="#100f0d" d="M 102.597656 91.257812 C 103.023438 91.257812 103.367188 91.601562 103.367188 92.027344 C 103.367188 92.453125 103.023438 92.796875 102.597656 92.796875 C 102.175781 92.796875 101.828125 92.453125 101.828125 92.027344 C 101.828125 91.601562 102.175781 91.257812 102.597656 91.257812 Z M 102.597656 95.875 C 104.714844 95.875 106.4375 94.148438 106.4375 92.027344 C 106.4375 89.902344 104.714844 88.175781 102.597656 88.175781 C 100.480469 88.175781 98.757812 89.902344 98.757812 92.027344 C 98.757812 94.148438 100.480469 95.875 102.597656 95.875 " fill-opacity="1" fill-rule="nonzero"/><path fill="#100f0d" d="M 94.148438 97.417969 C 93.726562 97.417969 93.382812 97.070312 93.382812 96.648438 C 93.382812 96.222656 93.726562 95.875 94.148438 95.875 C 94.574219 95.875 94.917969 96.222656 94.917969 96.648438 C 94.917969 97.070312 94.574219 97.417969 94.148438 97.417969 Z M 97.988281 96.648438 C 97.988281 94.523438 96.265625 92.796875 94.148438 92.796875 C 92.03125 92.796875 90.308594 94.523438 90.308594 96.648438 C 90.308594 98.769531 92.03125 100.496094 94.148438 100.496094 C 96.265625 100.496094 97.988281 98.769531 97.988281 96.648438 " fill-opacity="1" fill-rule="nonzero"/><path fill="#100f0d" d="M 111.816406 96.648438 C 111.816406 97.070312 111.46875 97.417969 111.046875 97.417969 C 110.621094 97.417969 110.277344 97.070312 110.277344 96.648438 C 110.277344 96.222656 110.621094 95.875 111.046875 95.875 C 111.46875 95.875 111.816406 96.222656 111.816406 96.648438 Z M 107.207031 96.648438 C 107.207031 98.769531 108.929688 100.496094 111.046875 100.496094 C 113.164062 100.496094 114.886719 98.769531 114.886719 96.648438 C 114.886719 94.523438 113.164062 92.796875 111.046875 92.796875 C 108.929688 92.796875 107.207031 94.523438 107.207031 96.648438 " fill-opacity="1" fill-rule="nonzero"/></svg>