<svg xmlns="http://www.w3.org/2000/svg" xmlns:xlink="http://www.w3.org/1999/xlink" width="200" zoomAndPan="magnify" viewBox="0 0 150 149.999998" height="200" preserveAspectRatio="xMidYMid meet" version="1.0"><defs><clipPath id="c25a01bea9"><path d="M 5.238281 5.238281 L 144.738281 5.238281 L 144.738281 144.738281 L 5.238281 144.738281 Z M 5.238281 5.238281 " clip-rule="nonzero"/></clipPath><clipPath id="e8846d68fe"><path d="M 75 5.238281 C 36.46875 5.238281 5.238281 36.46875 5.238281 75 C 5.238281 113.527344 36.46875 144.761719 75 144.761719 C 113.527344 144.761719 144.761719 113.527344 144.761719 75 C 144.761719 36.46875 113.527344 5.238281 75 5.238281 Z M 75 5.238281 " clip-rule="nonzero"/></clipPath><clipPath id="25914c2b5b"><path d="M 26.207031 70 L 123.707031 70 L 123.707031 81 L 26.207031 81 Z M 26.207031 70 " clip-rule="nonzero"/></clipPath><clipPath id="11e347aa1f"><path d="M 31 79 L 119 79 L 119 120.746094 L 31 120.746094 Z M 31 79 " clip-rule="nonzero"/></clipPath><clipPath id="cbb60cef83"><path d="M 38 24.746094 L 77 24.746094 L 77 72 L 38 72 Z M 38 24.746094 " clip-rule="nonzero"/></clipPath></defs><g clip-path="url(#c25a01bea9)"><g clip-path="url(#e8846d68fe)"><path stroke-linecap="butt" transform="matrix(0.75, 0, 0, 0.75, 5.237227, 5.237228)" fill="none" stroke-linejoin="miter" d="M 93.01703 0.00140474 C 41.642031 0.00140474 0.00140574 41.64203 0.00140574 93.017029 C 0.00140574 144.386821 41.642031 186.032654 93.01703 186.032654 C 144.386822 186.032654 186.032655 144.386821 186.032655 93.017029 C 186.032655 41.64203 144.386822 0.00140474 93.01703 0.00140474 Z M 93.01703 0.00140474 " stroke="#000000" stroke-width="8" stroke-opacity="1" stroke-miterlimit="4"/></g></g><g clip-path="url(#25914c2b5b)"><path fill="#000000" d="M 123.703125 80.910156 L 65.917969 80.910156 L 65.917969 77.289062 L 120.089844 77.289062 L 120.089844 75.476562 C 120.089844 74.476562 119.28125 73.664062 118.28125 73.664062 L 31.613281 73.664062 C 30.617188 73.664062 29.804688 74.476562 29.804688 75.476562 L 29.804688 77.289062 L 51.472656 77.289062 L 51.472656 80.910156 L 26.195312 80.910156 L 26.195312 75.476562 C 26.195312 72.480469 28.625 70.042969 31.613281 70.042969 L 118.285156 70.042969 C 121.273438 70.042969 123.703125 72.480469 123.703125 75.476562 Z M 123.703125 80.910156 " fill-opacity="1" fill-rule="nonzero"/></g><path fill="#000000" d="M 55.085938 77.289062 L 58.699219 77.289062 L 58.699219 80.910156 L 55.085938 80.910156 Z M 55.085938 77.289062 " fill-opacity="1" fill-rule="nonzero"/><g clip-path="url(#11e347aa1f)"><path fill="#000000" d="M 106.300781 120.757812 L 43.597656 120.757812 L 43.097656 120.335938 C 42.628906 119.945312 31.613281 110.375 31.613281 79.097656 L 35.222656 79.097656 C 35.222656 105.175781 43.050781 115.085938 44.980469 117.132812 L 104.902344 117.132812 C 106.816406 115.058594 114.671875 104.976562 114.671875 79.097656 L 118.28125 79.097656 C 118.28125 110.375 107.265625 119.941406 106.800781 120.335938 L 106.296875 120.757812 Z M 106.300781 120.757812 " fill-opacity="1" fill-rule="nonzero"/></g><path fill="#000000" d="M 60.503906 99.023438 C 58.511719 99.023438 56.894531 97.394531 56.894531 95.398438 C 56.894531 93.402344 58.511719 91.777344 60.503906 91.777344 C 62.496094 91.777344 64.113281 93.402344 64.113281 95.398438 C 64.113281 97.394531 62.496094 99.023438 60.503906 99.023438 Z M 60.503906 95.398438 L 60.503906 95.402344 Z M 60.503906 95.398438 " fill-opacity="1" fill-rule="nonzero"/><path fill="#000000" d="M 69.53125 91.777344 C 67.542969 91.777344 65.921875 90.152344 65.921875 88.15625 C 65.921875 86.160156 67.542969 84.53125 69.53125 84.53125 C 71.523438 84.53125 73.144531 86.160156 73.144531 88.15625 C 73.144531 90.152344 71.523438 91.777344 69.53125 91.777344 Z M 69.53125 88.15625 L 69.53125 88.160156 Z M 69.53125 88.15625 " fill-opacity="1" fill-rule="nonzero"/><path fill="#000000" d="M 80.367188 91.777344 C 78.375 91.777344 76.753906 90.152344 76.753906 88.15625 C 76.753906 86.160156 78.375 84.53125 80.367188 84.53125 C 82.355469 84.53125 83.976562 86.160156 83.976562 88.15625 C 83.976562 90.152344 82.355469 91.777344 80.367188 91.777344 Z M 80.367188 88.15625 L 80.367188 88.160156 Z M 80.367188 88.15625 " fill-opacity="1" fill-rule="nonzero"/><path fill="#000000" d="M 89.394531 99.023438 C 87.402344 99.023438 85.78125 97.394531 85.78125 95.398438 C 85.78125 93.402344 87.402344 91.777344 89.394531 91.777344 C 91.382812 91.777344 93.003906 93.402344 93.003906 95.398438 C 93.003906 97.394531 91.382812 99.023438 89.394531 99.023438 Z M 89.394531 95.398438 L 89.394531 95.402344 Z M 89.394531 95.398438 " fill-opacity="1" fill-rule="nonzero"/><path fill="#000000" d="M 81.269531 113.511719 C 79.511719 113.511719 78.503906 112.925781 77.695312 112.457031 C 76.96875 112.035156 76.394531 111.699219 74.949219 111.699219 C 73.503906 111.699219 72.933594 112.035156 72.207031 112.457031 C 71.398438 112.925781 70.390625 113.511719 68.632812 113.511719 C 65.148438 113.511719 62.3125 110.667969 62.3125 107.171875 C 62.3125 103.925781 63.734375 102.632812 65.242188 101.265625 C 66.296875 100.308594 67.488281 99.222656 68.816406 97.042969 C 70.15625 94.878906 72.445312 93.589844 74.953125 93.589844 C 77.460938 93.589844 79.75 94.878906 81.082031 97.03125 L 81.089844 97.042969 C 82.417969 99.226562 83.609375 100.308594 84.664062 101.265625 C 86.167969 102.632812 87.59375 103.925781 87.59375 107.171875 C 87.59375 110.667969 84.757812 113.511719 81.273438 113.511719 Z M 74.949219 108.078125 C 77.367188 108.078125 78.601562 108.796875 79.503906 109.320312 C 80.152344 109.699219 80.480469 109.886719 81.269531 109.886719 C 82.761719 109.886719 83.976562 108.667969 83.976562 107.171875 C 83.976562 105.53125 83.574219 105.164062 82.234375 103.945312 C 81.121094 102.9375 79.605469 101.558594 78.003906 98.933594 C 77.335938 97.855469 76.195312 97.210938 74.949219 97.210938 C 73.703125 97.210938 72.558594 97.855469 71.886719 98.9375 C 70.296875 101.554688 68.773438 102.9375 67.664062 103.945312 C 66.324219 105.160156 65.917969 105.527344 65.917969 107.171875 C 65.917969 108.667969 67.132812 109.886719 68.628906 109.886719 C 69.417969 109.886719 69.742188 109.699219 70.394531 109.320312 C 71.296875 108.792969 72.53125 108.074219 74.945312 108.074219 Z M 74.949219 108.078125 " fill-opacity="1" fill-rule="nonzero"/><g clip-path="url(#cbb60cef83)"><path fill="#000000" d="M 42.445312 71.855469 L 38.835938 71.855469 L 38.835938 45.8125 C 38.835938 38.09375 43.75 31.203125 51.0625 28.664062 C 58.519531 26.074219 66.554688 24.761719 74.949219 24.761719 L 76.753906 24.761719 L 76.753906 33.820312 L 73.144531 33.820312 L 73.144531 28.40625 C 65.808594 28.582031 58.789062 29.816406 52.246094 32.085938 C 46.386719 34.121094 42.449219 39.636719 42.449219 45.8125 L 42.449219 71.855469 Z M 42.445312 71.855469 " fill-opacity="1" fill-rule="nonzero"/></g><path fill="#000000" d="M 85.78125 44.6875 L 64.113281 44.6875 L 64.113281 42.875 C 64.113281 36.882812 68.976562 32.007812 74.949219 32.007812 C 80.921875 32.007812 85.78125 36.882812 85.78125 42.875 Z M 67.957031 41.066406 L 81.941406 41.066406 C 81.140625 37.945312 78.308594 35.628906 74.949219 35.628906 C 71.589844 35.628906 68.757812 37.941406 67.957031 41.066406 Z M 67.957031 41.066406 " fill-opacity="1" fill-rule="nonzero"/><path fill="#000000" d="M 49.671875 71.855469 L 46.058594 71.855469 C 46.058594 63.867188 52.539062 57.367188 60.503906 57.367188 C 66.191406 57.367188 71.386719 60.414062 73.746094 65.132812 L 70.515625 66.757812 C 68.769531 63.25 64.835938 60.988281 60.503906 60.988281 C 54.53125 60.988281 49.671875 65.863281 49.671875 71.855469 Z M 49.671875 71.855469 " fill-opacity="1" fill-rule="nonzero"/><path fill="#000000" d="M 98.421875 66.421875 L 94.8125 66.421875 C 94.8125 65.351562 94.675781 64.28125 94.414062 63.246094 C 92.976562 57.652344 87.945312 53.742188 82.171875 53.742188 C 76.398438 53.742188 72.054688 57.09375 70.386719 62.285156 L 66.949219 61.171875 C 69.105469 54.460938 75.082031 50.121094 82.171875 50.121094 C 89.257812 50.121094 96.0625 55.148438 97.910156 62.347656 C 98.25 63.671875 98.421875 65.046875 98.421875 66.421875 Z M 98.421875 66.421875 " fill-opacity="1" fill-rule="nonzero"/><path fill="#000000" d="M 110.339844 72.457031 L 106.9375 71.25 C 107.277344 70.285156 107.449219 69.269531 107.449219 68.230469 C 107.449219 63.238281 103.402344 59.175781 98.421875 59.175781 C 97.175781 59.175781 95.964844 59.425781 94.824219 59.921875 L 93.390625 56.597656 C 94.984375 55.90625 96.675781 55.554688 98.421875 55.554688 C 105.390625 55.554688 111.0625 61.242188 111.0625 68.230469 C 111.0625 69.683594 110.816406 71.105469 110.339844 72.457031 Z M 110.339844 72.457031 " fill-opacity="1" fill-rule="nonzero"/><path fill="#000000" d="M 109.253906 53.742188 C 107.265625 53.742188 105.644531 52.117188 105.644531 50.121094 C 105.644531 48.125 107.265625 46.5 109.253906 46.5 C 111.246094 46.5 112.867188 48.125 112.867188 50.121094 C 112.867188 52.117188 111.246094 53.742188 109.253906 53.742188 Z M 109.253906 50.121094 L 109.253906 50.125 Z M 109.253906 50.121094 " fill-opacity="1" fill-rule="nonzero"/></svg>