<svg xmlns="http://www.w3.org/2000/svg" xmlns:xlink="http://www.w3.org/1999/xlink" width="200" zoomAndPan="magnify" viewBox="0 0 150 149.999998" height="200" preserveAspectRatio="xMidYMid meet" version="1.0"><defs><clipPath id="343a3a4a6f"><path d="M 5.238281 5.238281 L 144.738281 5.238281 L 144.738281 144.738281 L 5.238281 144.738281 Z M 5.238281 5.238281 " clip-rule="nonzero"/></clipPath><clipPath id="540df9e826"><path d="M 75 5.238281 C 36.46875 5.238281 5.238281 36.46875 5.238281 75 C 5.238281 113.527344 36.46875 144.761719 75 144.761719 C 113.527344 144.761719 144.761719 113.527344 144.761719 75 C 144.761719 36.46875 113.527344 5.238281 75 5.238281 Z M 75 5.238281 " clip-rule="nonzero"/></clipPath><clipPath id="ff2b3b7123"><path d="M 26.386719 29.8125 L 119.386719 29.8125 L 119.386719 120.5625 L 26.386719 120.5625 Z M 26.386719 29.8125 " clip-rule="nonzero"/></clipPath></defs><g clip-path="url(#343a3a4a6f)"><g clip-path="url(#540df9e826)"><path stroke-linecap="butt" transform="matrix(0.75, 0, 0, 0.75, 5.237227, 5.237228)" fill="none" stroke-linejoin="miter" d="M 93.01703 0.00140474 C 41.642031 0.00140474 0.00140574 41.64203 0.00140574 93.017029 C 0.00140574 144.386821 41.642031 186.032654 93.01703 186.032654 C 144.386822 186.032654 186.032655 144.386821 186.032655 93.017029 C 186.032655 41.64203 144.386822 0.00140474 93.01703 0.00140474 Z M 93.01703 0.00140474 " stroke="#000000" stroke-width="8" stroke-opacity="1" stroke-miterlimit="4"/></g></g><path fill="#000000" d="M 92.640625 68.101562 L 83.023438 68.101562 C 81.835938 68.101562 80.871094 67.136719 80.871094 65.945312 L 80.871094 60.101562 L 75.035156 60.101562 C 73.851562 60.101562 72.882812 59.132812 72.882812 57.949219 L 72.882812 48.324219 C 72.882812 47.136719 73.851562 46.167969 75.035156 46.167969 L 80.871094 46.167969 L 80.871094 40.328125 C 80.871094 39.140625 81.835938 38.171875 83.023438 38.171875 L 92.640625 38.171875 C 93.824219 38.171875 94.792969 39.136719 94.792969 40.328125 L 94.792969 46.164062 L 100.625 46.164062 C 101.8125 46.164062 102.777344 47.132812 102.777344 48.320312 L 102.777344 57.941406 C 102.777344 59.128906 101.8125 60.097656 100.625 60.097656 L 94.792969 60.097656 L 94.792969 65.941406 C 94.792969 67.132812 93.828125 68.101562 92.640625 68.101562 Z M 84.191406 64.773438 L 91.472656 64.773438 L 91.472656 58.4375 C 91.472656 57.523438 92.21875 56.773438 93.132812 56.773438 L 99.460938 56.773438 L 99.460938 49.492188 L 93.132812 49.492188 C 92.21875 49.492188 91.472656 48.75 91.472656 47.828125 L 91.472656 41.492188 L 84.191406 41.492188 L 84.191406 47.828125 C 84.191406 48.746094 83.449219 49.492188 82.53125 49.492188 L 76.207031 49.492188 L 76.207031 56.78125 L 82.53125 56.78125 C 83.449219 56.78125 84.191406 57.523438 84.191406 58.445312 Z M 84.191406 64.773438 " fill-opacity="1" fill-rule="nonzero"/><g clip-path="url(#ff2b3b7123)"><path fill="#000000" d="M 109.660156 29.855469 L 65.78125 29.855469 C 60.542969 29.855469 56.277344 33.992188 56.277344 39.074219 L 56.277344 63.113281 L 36.105469 63.113281 C 30.75 63.113281 26.386719 67.246094 26.386719 72.324219 L 26.386719 100.453125 C 26.386719 105.535156 30.75 109.671875 36.105469 109.671875 L 36.351562 109.671875 L 36.351562 118.515625 C 36.351562 119.289062 36.785156 119.984375 37.484375 120.320312 C 37.765625 120.457031 38.0625 120.523438 38.359375 120.523438 C 38.800781 120.523438 39.242188 120.378906 39.601562 120.085938 L 52.648438 109.675781 L 79.992188 109.675781 C 85.230469 109.675781 89.496094 105.539062 89.496094 100.460938 L 89.496094 76.414062 L 93.125 76.414062 L 106.167969 86.824219 C 106.53125 87.109375 106.972656 87.261719 107.414062 87.261719 C 107.710938 87.261719 108.007812 87.195312 108.289062 87.058594 C 108.988281 86.722656 109.421875 86.027344 109.421875 85.253906 L 109.421875 76.414062 L 109.667969 76.414062 C 115.023438 76.414062 119.386719 72.277344 119.386719 67.199219 L 119.386719 39.074219 C 119.386719 33.992188 115.023438 29.855469 109.660156 29.855469 Z M 61.679688 76.066406 C 61.707031 75.890625 61.773438 75.734375 61.820312 75.570312 C 62.613281 75.921875 63.46875 76.171875 64.359375 76.300781 C 64.351562 76.382812 64.351562 76.457031 64.335938 76.53125 C 64.03125 78.265625 62.96875 79.175781 62.515625 79.089844 C 62.296875 79.050781 62.050781 78.78125 61.878906 78.386719 C 61.605469 77.761719 61.527344 76.910156 61.679688 76.066406 Z M 86.171875 100.453125 C 86.171875 103.703125 83.398438 106.34375 79.992188 106.34375 L 52.28125 106.34375 C 51.769531 106.34375 51.273438 106.519531 50.867188 106.835938 L 39.671875 115.769531 L 39.671875 108.550781 C 39.671875 107.332031 38.671875 106.34375 37.433594 106.34375 L 36.105469 106.34375 C 32.574219 106.34375 29.707031 103.703125 29.707031 100.453125 L 29.707031 72.324219 C 29.707031 69.078125 32.574219 66.4375 36.105469 66.4375 L 56.277344 66.4375 L 56.277344 67.199219 C 56.277344 69.699219 57.3125 71.960938 58.984375 73.625 C 58.730469 74.210938 58.527344 74.832031 58.40625 75.484375 C 58.144531 76.988281 58.292969 78.496094 58.84375 79.726562 C 59.476562 81.164062 60.609375 82.125 61.9375 82.359375 C 62.15625 82.398438 62.375 82.417969 62.589844 82.417969 C 64.925781 82.417969 67.0625 80.21875 67.609375 77.105469 C 67.652344 76.875 67.65625 76.640625 67.675781 76.410156 L 86.171875 76.410156 Z M 116.0625 67.199219 C 116.0625 70.445312 113.191406 73.085938 109.660156 73.085938 L 108.335938 73.085938 C 107.101562 73.085938 106.097656 74.078125 106.097656 75.292969 L 106.097656 82.511719 L 94.894531 73.578125 C 94.492188 73.261719 94 73.089844 93.488281 73.089844 L 65.777344 73.089844 C 62.367188 73.089844 59.597656 70.449219 59.597656 67.203125 L 59.597656 39.074219 C 59.597656 35.828125 62.367188 33.183594 65.777344 33.183594 L 109.660156 33.183594 C 113.191406 33.183594 116.0625 35.828125 116.0625 39.074219 Z M 116.0625 67.199219 " fill-opacity="1" fill-rule="nonzero"/></g><path fill="#000000" d="M 65.769531 82.058594 C 64.777344 84.785156 65.65625 87.523438 67.769531 88.296875 C 68.132812 88.429688 68.511719 88.496094 68.894531 88.496094 C 69.6875 88.496094 70.5 88.21875 71.234375 87.679688 C 72.140625 87.011719 72.878906 85.996094 73.3125 84.804688 C 74.304688 82.078125 73.425781 79.339844 71.308594 78.566406 C 69.191406 77.789062 66.757812 79.328125 65.769531 82.058594 Z M 70.1875 83.664062 C 69.789062 84.761719 69.078125 85.191406 68.917969 85.171875 C 68.773438 85.074219 68.492188 84.285156 68.886719 83.191406 C 69.285156 82.109375 69.992188 81.683594 70.152344 81.683594 C 70.152344 81.683594 70.160156 81.683594 70.160156 81.683594 C 70.304688 81.785156 70.582031 82.574219 70.1875 83.664062 Z M 70.1875 83.664062 " fill-opacity="1" fill-rule="nonzero"/><path fill="#000000" d="M 46.988281 88.492188 C 47.371094 88.492188 47.75 88.425781 48.113281 88.292969 C 50.222656 87.523438 51.105469 84.78125 50.113281 82.054688 C 49.121094 79.328125 46.691406 77.789062 44.574219 78.558594 C 42.460938 79.332031 41.582031 82.074219 42.574219 84.800781 C 43.007812 85.984375 43.746094 87.007812 44.652344 87.671875 C 45.382812 88.210938 46.195312 88.492188 46.988281 88.492188 Z M 45.699219 81.695312 C 45.703125 81.695312 45.703125 81.695312 45.710938 81.695312 C 45.898438 81.695312 46.601562 82.121094 46.992188 83.191406 C 47.390625 84.285156 47.109375 85.074219 46.988281 85.164062 C 46.820312 85.171875 46.089844 84.753906 45.695312 83.664062 C 45.292969 82.574219 45.578125 81.785156 45.699219 81.695312 Z M 45.699219 81.695312 " fill-opacity="1" fill-rule="nonzero"/><path fill="#000000" d="M 50.242188 80.953125 C 51.15625 81.90625 52.285156 82.421875 53.414062 82.421875 C 53.625 82.421875 53.84375 82.402344 54.054688 82.367188 C 56.632812 81.910156 58.1875 78.886719 57.585938 75.484375 C 56.988281 72.082031 54.488281 69.757812 51.917969 70.226562 C 50.582031 70.464844 49.453125 71.421875 48.820312 72.859375 C 48.277344 74.09375 48.121094 75.601562 48.386719 77.109375 C 48.648438 78.613281 49.304688 79.976562 50.242188 80.953125 Z M 51.855469 74.207031 C 52.03125 73.816406 52.269531 73.539062 52.492188 73.503906 C 52.511719 73.5 52.53125 73.5 52.554688 73.5 C 53.046875 73.5 54.023438 74.402344 54.316406 76.066406 C 54.621094 77.800781 53.945312 79.007812 53.480469 79.09375 C 53.261719 79.132812 52.9375 78.960938 52.644531 78.65625 C 52.167969 78.160156 51.808594 77.386719 51.660156 76.539062 C 51.507812 75.683594 51.578125 74.835938 51.855469 74.207031 Z M 51.855469 74.207031 " fill-opacity="1" fill-rule="nonzero"/><path fill="#000000" d="M 67.933594 91.5625 C 67.207031 91.171875 66.636719 90.863281 66.085938 90.070312 C 65.746094 89.582031 65.535156 88.921875 65.320312 88.222656 C 65.074219 87.4375 64.800781 86.554688 64.277344 85.714844 C 63.46875 84.425781 61.726562 82.886719 57.992188 82.886719 C 55.253906 82.886719 53.074219 83.863281 51.859375 85.640625 C 51.273438 86.5 50.949219 87.425781 50.664062 88.246094 C 50.4375 88.898438 50.226562 89.511719 49.914062 89.996094 C 49.546875 90.570312 48.890625 90.96875 48.132812 91.4375 C 47.546875 91.796875 46.878906 92.203125 46.28125 92.75 C 44.003906 94.8125 44.183594 98.324219 45.773438 100.3125 C 47.675781 102.691406 51.085938 102.898438 53.421875 102.351562 C 54.4375 102.113281 55.324219 101.621094 56.109375 101.191406 C 56.804688 100.808594 57.523438 100.410156 57.996094 100.410156 C 58.46875 100.410156 59.1875 100.808594 59.886719 101.191406 C 60.667969 101.621094 61.558594 102.113281 62.570312 102.351562 C 63.242188 102.503906 63.996094 102.601562 64.78125 102.601562 C 66.734375 102.601562 68.863281 102.007812 70.222656 100.308594 C 71.816406 98.316406 71.996094 94.804688 69.71875 92.742188 C 69.105469 92.195312 68.480469 91.859375 67.933594 91.5625 Z M 67.625 98.234375 C 66.75 99.320312 64.78125 99.453125 63.324219 99.113281 C 62.757812 98.980469 62.136719 98.640625 61.484375 98.28125 C 60.472656 97.71875 59.324219 97.085938 57.992188 97.085938 C 56.660156 97.085938 55.515625 97.71875 54.5 98.28125 C 53.847656 98.640625 53.230469 98.980469 52.664062 99.113281 C 51.203125 99.453125 49.234375 99.320312 48.363281 98.234375 C 47.730469 97.4375 47.652344 95.984375 48.503906 95.210938 C 48.875 94.875 49.355469 94.578125 49.863281 94.273438 C 50.832031 93.679688 51.925781 93.003906 52.707031 91.789062 C 53.230469 90.976562 53.53125 90.109375 53.800781 89.34375 C 54.035156 88.660156 54.261719 88.015625 54.597656 87.523438 C 55.378906 86.382812 57.058594 86.214844 57.992188 86.214844 C 59.210938 86.214844 60.804688 86.429688 61.457031 87.480469 C 61.75 87.953125 61.945312 88.5625 62.148438 89.214844 C 62.417969 90.085938 62.722656 91.066406 63.359375 91.980469 C 64.367188 93.417969 65.46875 94.011719 66.359375 94.492188 C 66.796875 94.730469 67.175781 94.933594 67.484375 95.21875 C 68.332031 95.984375 68.261719 97.4375 67.625 98.234375 Z M 67.625 98.234375 " fill-opacity="1" fill-rule="nonzero"/></svg>